<?xml version="1.0" encoding="utf-8"?>
<svg version="1.1" id="Layer_1" xmlns="http://www.w3.org/2000/svg" xmlns:xlink="http://www.w3.org/1999/xlink" x="0px" y="0px"
	 viewBox="0 0 32 32" style="enable-background:new 0 0 32 32;" xml:space="preserve">
<style type="text/css">
	.st0{fill:url(#SVGID_1_);stroke:#2C3E50;stroke-width:2;}
	.st1{fill:#FFFFFF;}
	.st2{fill:none;}
</style>
<linearGradient id="SVGID_1_" gradientUnits="userSpaceOnUse" x1="-390.5333" y1="304.9089" x2="-389.5333" y2="303.9089" gradientTransform="matrix(30 0 0 -30 11717 9148.2676)">
	<stop  offset="0" style="stop-color:#8E44AD"/>
	<stop  offset="0.5" style="stop-color:#663399"/>
	<stop  offset="1" style="stop-color:#4A235A"/>
</linearGradient>
<circle class="st0" cx="16" cy="16" r="15"/>
<g>
	<g>
		<path class="st1" d="M5.3,22.3V9.7h4.5c4.5,0,6.7,2,6.7,6.1c0,2-0.6,3.5-1.8,4.7s-2.8,1.8-4.9,1.8H5.3z M8.1,12v8h1.4
			c1.2,0,2.2-0.4,2.9-1.1s1.1-1.7,1.1-3c0-1.2-0.3-2.1-1-2.8s-1.7-1-2.9-1H8.1z"/>
		<path class="st1" d="M21.4,18v4.3h-2.8V9.7H23c3.2,0,4.8,1.3,4.8,4c0,1.3-0.5,2.3-1.4,3.1S24.3,18,22.7,18H21.4z M21.4,11.9v3.9
			h1.1c1.5,0,2.3-0.7,2.3-2c0-1.3-0.8-1.9-2.3-1.9H21.4z"/>
	</g>
</g>
<circle class="st2" cx="16" cy="16" r="15"/>
</svg>
